<svg width="600" height="400" viewBox="0 0 600 400" xmlns="http://www.w3.org/2000/svg">
  <rect width="600" height="400" fill="#0f172a"/>
  <!-- header -->
  <rect x="0" y="0" width="600" height="50" fill="#1e293b"/>
  <text x="30" y="32" font-family="Arial" font-size="16" fill="#38bdf8" font-weight="bold">TaskFlow</text>
  <rect x="480" y="13" width="100" height="24" rx="6" fill="#0284c7"/>
  <text x="530" y="30" text-anchor="middle" font-family="Arial" font-size="11" fill="#fff">+ New Task</text>
  <!-- kanban columns -->
  <!-- TODO -->
  <rect x="15" y="65" width="175" height="300" rx="8" fill="#1e293b"/>
  <text x="30" y="88" font-family="Arial" font-size="12" fill="#94a3b8" font-weight="bold">TO DO</text>
  <rect x="140" y="76" width="24" height="16" rx="8" fill="#334155"/>
  <text x="152" y="88" text-anchor="middle" font-family="Arial" font-size="10" fill="#64748b">4</text>
  <rect x="25" y="100" width="155" height="65" rx="6" fill="#0f172a"/>
  <rect x="35" y="112" width="50" height="14" rx="7" fill="#1d4ed8" opacity="0.4"/>
  <text x="60" y="123" text-anchor="middle" font-family="Arial" font-size="9" fill="#60a5fa">Design</text>
  <rect x="35" y="132" width="120" height="8" rx="2" fill="#1e293b"/>
  <rect x="35" y="148" width="90" height="8" rx="2" fill="#1e293b"/>
  <rect x="25" y="175" width="155" height="65" rx="6" fill="#0f172a"/>
  <rect x="35" y="187" width="60" height="14" rx="7" fill="#065f46" opacity="0.5"/>
  <text x="65" y="198" text-anchor="middle" font-family="Arial" font-size="9" fill="#34d399">Backend</text>
  <rect x="35" y="207" width="120" height="8" rx="2" fill="#1e293b"/>
  <rect x="35" y="223" width="90" height="8" rx="2" fill="#1e293b"/>
  <rect x="25" y="250" width="155" height="65" rx="6" fill="#0f172a"/>
  <rect x="35" y="262" width="60" height="14" rx="7" fill="#7c2d12" opacity="0.5"/>
  <text x="65" y="273" text-anchor="middle" font-family="Arial" font-size="9" fill="#fb923c">Urgent</text>
  <rect x="35" y="282" width="120" height="8" rx="2" fill="#1e293b"/>
  <rect x="35" y="298" width="90" height="8" rx="2" fill="#1e293b"/>
  <!-- IN PROGRESS -->
  <rect x="205" y="65" width="175" height="300" rx="8" fill="#1e293b"/>
  <text x="220" y="88" font-family="Arial" font-size="12" fill="#38bdf8" font-weight="bold">IN PROGRESS</text>
  <rect x="25" y="100" width="0" height="0"/>
  <rect x="215" y="100" width="155" height="65" rx="6" fill="#0f172a" stroke="#0284c7" stroke-width="1"/>
  <rect x="225" y="112" width="70" height="14" rx="7" fill="#1d4ed8" opacity="0.4"/>
  <text x="260" y="123" text-anchor="middle" font-family="Arial" font-size="9" fill="#60a5fa">Frontend</text>
  <rect x="225" y="132" width="120" height="8" rx="2" fill="#1e293b"/>
  <rect x="225" y="148" width="90" height="8" rx="2" fill="#1e293b"/>
  <rect x="225" y="156" width="120" height="4" rx="2" fill="#1e293b"/>
  <rect x="225" y="156" width="80" height="4" rx="2" fill="#0284c7"/>
  <rect x="215" y="175" width="155" height="65" rx="6" fill="#0f172a" stroke="#0284c7" stroke-width="1"/>
  <rect x="225" y="187" width="60" height="14" rx="7" fill="#065f46" opacity="0.5"/>
  <text x="255" y="198" text-anchor="middle" font-family="Arial" font-size="9" fill="#34d399">API</text>
  <rect x="225" y="207" width="120" height="8" rx="2" fill="#1e293b"/>
  <rect x="225" y="223" width="90" height="8" rx="2" fill="#1e293b"/>
  <rect x="225" y="231" width="120" height="4" rx="2" fill="#1e293b"/>
  <rect x="225" y="231" width="50" height="4" rx="2" fill="#0284c7"/>
  <!-- DONE -->
  <rect x="395" y="65" width="175" height="300" rx="8" fill="#1e293b"/>
  <text x="410" y="88" font-family="Arial" font-size="12" fill="#34d399" font-weight="bold">DONE</text>
  <rect x="405" y="100" width="155" height="65" rx="6" fill="#0f172a"/>
  <rect x="415" y="112" width="16" height="16" rx="4" fill="#065f46"/>
  <text x="423" y="124" text-anchor="middle" font-family="Arial" font-size="10" fill="#34d399">✓</text>
  <rect x="438" y="114" width="100" height="8" rx="2" fill="#1e293b"/>
  <rect x="415" y="132" width="120" height="8" rx="2" fill="#1e293b"/>
  <rect x="415" y="148" width="90" height="8" rx="2" fill="#1e293b"/>
  <rect x="405" y="175" width="155" height="65" rx="6" fill="#0f172a"/>
  <rect x="415" y="187" width="16" height="16" rx="4" fill="#065f46"/>
  <text x="423" y="199" text-anchor="middle" font-family="Arial" font-size="10" fill="#34d399">✓</text>
  <rect x="438" y="189" width="100" height="8" rx="2" fill="#1e293b"/>
  <rect x="415" y="207" width="120" height="8" rx="2" fill="#1e293b"/>
  <rect x="415" y="223" width="90" height="8" rx="2" fill="#1e293b"/>
  <!-- label -->
  <rect x="0" y="370" width="600" height="30" fill="#1e293b"/>
  <text x="300" y="390" text-anchor="middle" font-family="Arial" font-size="13" fill="#38bdf8" font-weight="bold">Task Manager App — React + MongoDB</text>
</svg>
