<svg width="600" height="400" viewBox="0 0 600 400" xmlns="http://www.w3.org/2000/svg">
  <rect width="600" height="400" fill="#0f1e35"/>
  <!-- navbar -->
  <rect x="0" y="0" width="600" height="50" fill="#1a2e4a"/>
  <rect x="20" y="18" width="80" height="14" rx="3" fill="#3b82f6"/>
  <rect x="200" y="20" width="50" height="10" rx="2" fill="#334155"/>
  <rect x="270" y="20" width="50" height="10" rx="2" fill="#334155"/>
  <rect x="340" y="20" width="50" height="10" rx="2" fill="#334155"/>
  <rect x="500" y="14" width="80" height="22" rx="11" fill="#3b82f6"/>
  <!-- hero banner -->
  <rect x="20" y="70" width="370" height="160" rx="10" fill="#1e3a5f"/>
  <rect x="40" y="95" width="160" height="18" rx="4" fill="#60a5fa"/>
  <rect x="40" y="125" width="220" height="12" rx="3" fill="#334155"/>
  <rect x="40" y="145" width="180" height="12" rx="3" fill="#334155"/>
  <rect x="40" y="175" width="100" height="28" rx="14" fill="#3b82f6"/>
  <!-- product image placeholder -->
  <rect x="260" y="80" width="110" height="140" rx="8" fill="#2563eb" opacity="0.4"/>
  <circle cx="315" cy="140" r="35" fill="#3b82f6" opacity="0.6"/>
  <!-- product cards -->
  <rect x="410" y="70" width="170" height="80" rx="8" fill="#1e3a5f"/>
  <rect x="425" y="85" width="60" height="50" rx="4" fill="#2563eb" opacity="0.5"/>
  <rect x="495" y="90" width="70" height="10" rx="2" fill="#60a5fa"/>
  <rect x="495" y="108" width="50" height="8" rx="2" fill="#334155"/>
  <rect x="495" y="122" width="40" height="14" rx="4" fill="#3b82f6"/>
  <rect x="410" y="160" width="170" height="80" rx="8" fill="#1e3a5f"/>
  <rect x="425" y="175" width="60" height="50" rx="4" fill="#7c3aed" opacity="0.5"/>
  <rect x="495" y="180" width="70" height="10" rx="2" fill="#a78bfa"/>
  <rect x="495" y="198" width="50" height="8" rx="2" fill="#334155"/>
  <rect x="495" y="212" width="40" height="14" rx="4" fill="#7c3aed"/>
  <!-- bottom cards -->
  <rect x="20" y="250" width="170" height="120" rx="10" fill="#1e3a5f"/>
  <rect x="35" y="265" width="140" height="70" rx="6" fill="#0f2d4a"/>
  <circle cx="75" cy="300" r="20" fill="#3b82f6" opacity="0.6"/>
  <rect x="35" y="348" width="80" height="10" rx="2" fill="#60a5fa"/>
  <rect x="120" y="348" width="40" height="10" rx="2" fill="#334155"/>
  <rect x="210" y="250" width="170" height="120" rx="10" fill="#1e3a5f"/>
  <rect x="225" y="265" width="140" height="70" rx="6" fill="#0f2d4a"/>
  <circle cx="265" cy="300" r="20" fill="#7c3aed" opacity="0.6"/>
  <rect x="225" y="348" width="80" height="10" rx="2" fill="#a78bfa"/>
  <rect x="310" y="348" width="40" height="10" rx="2" fill="#334155"/>
  <rect x="400" y="250" width="180" height="120" rx="10" fill="#1e3a5f"/>
  <rect x="415" y="265" width="150" height="70" rx="6" fill="#0f2d4a"/>
  <circle cx="455" cy="300" r="20" fill="#0891b2" opacity="0.6"/>
  <rect x="415" y="348" width="80" height="10" rx="2" fill="#67e8f9"/>
  <rect x="500" y="348" width="40" height="10" rx="2" fill="#334155"/>
  <!-- label -->
  <rect x="0" y="370" width="600" height="30" fill="#1a2e4a"/>
  <text x="300" y="390" text-anchor="middle" font-family="Arial" font-size="13" fill="#60a5fa" font-weight="bold">E-Commerce Website — React + Node.js + MongoDB</text>
</svg>
