<svg width="600" height="400" viewBox="0 0 600 400" xmlns="http://www.w3.org/2000/svg">
  <rect width="600" height="400" fill="#1a1207"/>
  <!-- header -->
  <rect x="0" y="0" width="600" height="55" fill="#211608"/>
  <text x="30" y="34" font-family="Georgia" font-size="18" fill="#f59e0b" font-weight="bold">The Daily Blog</text>
  <rect x="260" y="20" width="40" height="10" rx="2" fill="#292010"/>
  <rect x="315" y="20" width="40" height="10" rx="2" fill="#292010"/>
  <rect x="370" y="20" width="40" height="10" rx="2" fill="#292010"/>
  <rect x="500" y="14" width="80" height="26" rx="4" fill="#d97706"/>
  <text x="540" y="32" text-anchor="middle" font-family="Arial" font-size="11" fill="#fff">Subscribe</text>
  <!-- featured post -->
  <rect x="20" y="70" width="380" height="200" rx="10" fill="#292010"/>
  <rect x="20" y="70" width="380" height="110" rx="10" fill="#3d2a0a"/>
  <rect x="35" y="85" width="60" height="20" rx="10" fill="#d97706"/>
  <text x="65" y="100" text-anchor="middle" font-family="Arial" font-size="10" fill="#fff">Featured</text>
  <text x="35" y="138" font-family="Georgia" font-size="15" fill="#fef3c7" font-weight="bold">How to Build a</text>
  <text x="35" y="158" font-family="Georgia" font-size="15" fill="#fef3c7" font-weight="bold">Modern Web App</text>
  <rect x="35" y="195" width="200" height="8" rx="2" fill="#292010"/>
  <rect x="35" y="211" width="160" height="8" rx="2" fill="#292010"/>
  <rect x="35" y="227" width="180" height="8" rx="2" fill="#292010"/>
  <rect x="35" y="248" width="50" height="8" rx="2" fill="#d97706" opacity="0.6"/>
  <rect x="100" y="248" width="60" height="8" rx="2" fill="#292010"/>
  <!-- sidebar -->
  <rect x="415" y="70" width="165" height="200" rx="10" fill="#211608"/>
  <text x="430" y="95" font-family="Arial" font-size="11" fill="#d97706">Recent Posts</text>
  <rect x="430" y="105" width="135" height="1" fill="#3d2a0a"/>
  <rect x="430" y="115" width="135" height="8" rx="2" fill="#292010"/>
  <rect x="430" y="131" width="110" height="8" rx="2" fill="#292010"/>
  <rect x="430" y="155" width="135" height="8" rx="2" fill="#292010"/>
  <rect x="430" y="171" width="110" height="8" rx="2" fill="#292010"/>
  <rect x="430" y="195" width="135" height="8" rx="2" fill="#292010"/>
  <rect x="430" y="211" width="110" height="8" rx="2" fill="#292010"/>
  <!-- bottom posts -->
  <rect x="20" y="285" width="175" height="90" rx="8" fill="#211608"/>
  <rect x="30" y="296" width="155" height="45" rx="4" fill="#292010"/>
  <rect x="30" y="350" width="100" height="8" rx="2" fill="#d97706" opacity="0.5"/>
  <rect x="210" y="285" width="175" height="90" rx="8" fill="#211608"/>
  <rect x="220" y="296" width="155" height="45" rx="4" fill="#292010"/>
  <rect x="220" y="350" width="100" height="8" rx="2" fill="#d97706" opacity="0.5"/>
  <rect x="415" y="285" width="165" height="90" rx="8" fill="#211608"/>
  <rect x="425" y="296" width="145" height="45" rx="4" fill="#292010"/>
  <rect x="425" y="350" width="100" height="8" rx="2" fill="#d97706" opacity="0.5"/>
  <!-- label -->
  <rect x="0" y="370" width="600" height="30" fill="#211608"/>
  <text x="300" y="390" text-anchor="middle" font-family="Arial" font-size="13" fill="#f59e0b" font-weight="bold">Blog Platform — HTML + CSS + JavaScript</text>
</svg>
