<svg width="600" height="400" viewBox="0 0 600 400" xmlns="http://www.w3.org/2000/svg">
  <rect width="600" height="400" fill="#0a0a0f"/>
  <!-- navbar -->
  <rect x="0" y="0" width="600" height="50" fill="#0f0f1a"/>
  <text x="30" y="32" font-family="Arial" font-size="16" fill="#a78bfa" font-weight="bold">ROHIT</text>
  <rect x="200" y="20" width="40" height="10" rx="2" fill="#1e1e2e"/>
  <rect x="255" y="20" width="40" height="10" rx="2" fill="#1e1e2e"/>
  <rect x="310" y="20" width="40" height="10" rx="2" fill="#1e1e2e"/>
  <rect x="365" y="20" width="40" height="10" rx="2" fill="#1e1e2e"/>
  <rect x="480" y="14" width="90" height="22" rx="11" fill="none" stroke="#7c3aed" stroke-width="1.5"/>
  <text x="525" y="30" text-anchor="middle" font-family="Arial" font-size="11" fill="#a78bfa">Connect</text>
  <!-- hero text -->
  <text x="40" y="100" font-family="Arial" font-size="13" fill="#64748b">Hi, I'm</text>
  <text x="40" y="130" font-family="Arial" font-size="26" fill="#ffffff" font-weight="bold">Rohit Rana Magar</text>
  <text x="40" y="158" font-family="Arial" font-size="13" fill="#7c3aed">BIT Student | Web Developer | Content Writer</text>
  <rect x="40" y="178" width="280" height="8" rx="2" fill="#1e1e2e"/>
  <rect x="40" y="194" width="240" height="8" rx="2" fill="#1e1e2e"/>
  <rect x="40" y="218" width="110" height="28" rx="14" fill="#7c3aed"/>
  <text x="95" y="237" text-anchor="middle" font-family="Arial" font-size="11" fill="#fff">My Resume</text>
  <rect x="165" y="218" width="120" height="28" rx="14" fill="none" stroke="#7c3aed" stroke-width="1.5"/>
  <text x="225" y="237" text-anchor="middle" font-family="Arial" font-size="11" fill="#a78bfa">Connect with me</text>
  <!-- profile blob -->
  <ellipse cx="470" cy="170" rx="90" ry="100" fill="#1a0a2e" opacity="0.8"/>
  <ellipse cx="470" cy="160" rx="70" ry="80" fill="#2d1b4e"/>
  <circle cx="470" cy="140" r="45" fill="#3d1f6e" opacity="0.8"/>
  <circle cx="470" cy="135" r="30" fill="#4c2a8a" opacity="0.6"/>
  <ellipse cx="470" cy="155" rx="90" ry="95" fill="none" stroke="#7c3aed" stroke-width="2"/>
  <!-- skills section hint -->
  <rect x="0" y="290" width="600" height="80" fill="#0f0f1a"/>
  <text x="300" y="320" text-anchor="middle" font-family="Arial" font-size="11" fill="#334155">SKILLS</text>
  <rect x="60" y="330" width="70" height="24" rx="12" fill="#1e1e2e" stroke="#7c3aed" stroke-width="0.5"/>
  <text x="95" y="346" text-anchor="middle" font-family="Arial" font-size="10" fill="#a78bfa">React JS</text>
  <rect x="150" y="330" width="70" height="24" rx="12" fill="#1e1e2e" stroke="#7c3aed" stroke-width="0.5"/>
  <text x="185" y="346" text-anchor="middle" font-family="Arial" font-size="10" fill="#a78bfa">Node.js</text>
  <rect x="240" y="330" width="70" height="24" rx="12" fill="#1e1e2e" stroke="#7c3aed" stroke-width="0.5"/>
  <text x="275" y="346" text-anchor="middle" font-family="Arial" font-size="10" fill="#a78bfa">MongoDB</text>
  <rect x="330" y="330" width="70" height="24" rx="12" fill="#1e1e2e" stroke="#7c3aed" stroke-width="0.5"/>
  <text x="365" y="346" text-anchor="middle" font-family="Arial" font-size="10" fill="#a78bfa">CSS</text>
  <rect x="420" y="330" width="70" height="24" rx="12" fill="#1e1e2e" stroke="#7c3aed" stroke-width="0.5"/>
  <text x="455" y="346" text-anchor="middle" font-family="Arial" font-size="10" fill="#a78bfa">JavaScript</text>
  <!-- label -->
  <rect x="0" y="370" width="600" height="30" fill="#0f0f1a"/>
  <text x="300" y="390" text-anchor="middle" font-family="Arial" font-size="13" fill="#a78bfa" font-weight="bold">Portfolio Website — React + CSS</text>
</svg>
